<?xml version="1.0" encoding="UTF-8"?>
<svg width="496px" height="194px" viewBox="0 0 496 194" version="1.1" xmlns="http://www.w3.org/2000/svg" xmlns:xlink="http://www.w3.org/1999/xlink">
    <!-- Generator: Sketch 57.1 (83088) - https://sketch.com -->
    <title>Logo mpx</title>
    <desc>Created with Sketch.</desc>
    <g id="Normal" stroke="none" stroke-width="1" fill="none" fill-rule="evenodd">
        <g id="Ouvidoria-MPX" transform="translate(-712.000000, -81.000000)">
            <g id="Logo-mpx" transform="translate(712.000000, 81.000000)">
                <g id="Leao">
                    <polygon id="Fill-1" fill="#1864AB" points="72.2526703 0 15.9886475 25.7909143 0 113.406857 71.8191267 194 144 113.406857 128.011353 25.7909143"></polygon>
                    <polygon id="Fill-2" fill="#F8F9FA" points="92 106.437972 72.5182125 118 53 106.437972 72.5182125 98"></polygon>
                    <polygon id="Fill-3" fill="#F8F9FA" points="71.9628142 19 87.6249283 28.0789864 103.284288 37.1607408 108 68.7406663 90.9716516 83.2116848 90.9716516 102.964016 73.3318031 95.1140146 73.3318031 87.8785053 84.9227591 79.3420437 71.9628142 82.66916 59.0028693 79.3420437 70.7398141 88.094408 70.7398141 95.3299173 53.0255939 103 53.0255939 83.3196362 36 68.8513856 40.7157122 37.2686921 56.3750717 28.1869378"></polygon>
                    <path d="M97.9295775,46 L81.0796316,47.4749013 L78,61 C82.5314193,51.3073886 92.7968581,50.8646362 98,46 L97.9295775,46 Z" id="Fill-9" fill="#1864AB"></path>
                    <path d="M46,46 L62.8499458,47.4749013 L66,61 C61.4685807,51.3073886 51.2383532,50.8646362 46,46" id="Fill-11" fill="#1864AB"></path>
                </g>
                <g id="Texto" transform="translate(160.000000, 26.000000)">
                    <path d="M0.108067039,0 L44.2160447,0 L63.0141676,16.630942 L80.6484916,0 L124.579128,0 L124.579128,87.753932 L96.332067,87.753932 L79.526257,70.9427914 L62.6871955,87.753932 L61.889162,87.753932 L45.0861229,70.9427914 L28.2470615,87.753932 L0,87.753932 L0.108067039,0 Z M142.687285,87.753932 L142.687285,0 L211.168536,0 L230.398927,17.9006489 L230.398927,43.8409263 L211.168536,62.3182106 L185.817117,62.3182106 L185.817117,87.6818526 L142.687285,87.753932 Z" id="Fill-4" fill="#1864AB"></path>
                    <polygon id="Fill-5" fill="#37B24D" points="308.713717 0 292 17.113505 275.177861 0 248 0 248 26.3430106 264.566374 43.99861 248 60.6784394 248 88 275.177861 88 292.038921 71.2868109 308.569154 88 336 88 336 60.6784394 318.885954 43.9624704 336 26.3430106 336 0"></polygon>
                    <polygon id="Fill-6" fill="#FCC419" points="292.272225 17 319 43.7644463 292.308153 71 265 43.8004721"></polygon>
                    <path d="M291.5,29 C299.509946,29 306,35.4928271 306,43.5 C306,51.5071729 299.509946,58 291.5,58 C283.492827,58 277,51.5071729 277,43.5 C277,35.4928271 283.492827,29 291.5,29" id="Fill-7" fill="#1864AB"></path>
                    <path d="M304.785073,95 L310.615151,95 L310.615151,121.303447 L335.531531,121.303447 L335.531531,125.833362 L304.785073,125.833362 L304.785073,95 Z M268.56876,95 L274.362816,95 L274.362816,125.761282 L268.56876,125.761282 L268.56876,95.0720794 L268.56876,95 Z M227.971575,107.101027 C235.217609,107.101027 238.836469,109.313311 238.836469,113.732335 L238.836469,119.202054 C238.836469,123.58781 235.217609,125.761282 227.971575,125.761282 L201.716827,125.761282 L201.716827,121.303447 L227.971575,121.303447 C231.593207,121.303447 233.114458,120.61592 233.114458,119.274134 L233.114458,113.804414 C233.114458,112.42936 231.413095,111.739061 227.971575,111.739061 L211.639598,111.739061 C204.396335,111.739061 200.774704,109.49351 200.774704,105.071714 L200.774704,101.703387 C200.774704,97.2815911 204.396335,95.0720794 211.639598,95.0720794 L236.991017,95.0720794 L236.991017,99.638034 L211.639598,99.638034 C208.200849,99.638034 206.496715,100.325561 206.496715,101.703387 L206.496715,105.071714 C206.496715,106.48558 208.200849,107.173107 211.639598,107.173107 L227.971575,107.101027 Z M172.818592,125.761282 L166.517453,125.761282 L150.401609,100.652691 L134.030838,125.761282 L127.801743,125.761282 L148.265207,95 L152.501989,95 C152.501989,95 172.818592,125.761282 172.818592,125.761282 L172.818592,125.761282 Z M70.3294749,99.5659546 L70.3294749,107.536276 L88.836648,107.536276 C92.4582793,107.536276 94.0155531,106.848749 94.0155531,105.434883 L94.0155531,101.811506 C94.0155531,100.43368 92.2753966,99.7461531 88.836648,99.7461531 L70.3294749,99.5659546 Z M64.535419,125.761282 L64.535419,95.0720794 L88.836648,95.0720794 C96.0799106,95.0720794 99.6987709,97.2815911 99.6987709,101.703387 L99.6987709,105.326764 C99.6987709,108.950142 97.1661229,111.195693 92.0952849,111.811141 L99.3385475,125.689203 L93.2895642,125.689203 L86.0490726,111.958072 L70.3294749,111.958072 L70.3294749,125.689203 L64.535419,125.761282 Z M5.79682682,99.5659546 L5.79682682,107.644395 L24.3012291,107.644395 C25.5398436,107.716475 26.7756872,107.505781 27.9228603,107.028948 C28.7208939,106.629739 29.1171397,106.15845 29.1171397,105.543003 L29.1171397,101.703387 C29.1171397,100.325561 27.4157765,99.638034 23.974257,99.638034 L5.79682682,99.5659546 Z M23.9022123,121.303447 C27.5238436,121.303447 29.045095,120.57988 29.045095,119.202054 L29.045095,114.347782 C29.0007598,113.640849 28.5269274,113.036491 27.8508156,112.825797 C26.6981006,112.376687 25.462257,112.177082 24.2291844,112.246389 L5.79682682,112.246389 L5.79682682,121.303447 L23.9022123,121.303447 Z M0,95.0720794 L23.9022123,95.0720794 C31.1454749,95.0720794 34.7671061,97.2815911 34.7671061,101.703387 L34.7671061,104.639237 C34.9222793,106.967957 33.5423464,109.127568 31.3643799,109.962026 C33.4398212,110.652325 34.8419218,112.595697 34.8391549,114.783031 L34.8391549,119.202054 C34.8391549,123.62385 31.2175196,125.833362 23.974257,125.833362 L0.0748156425,125.833362 L0.0748156425,95.0720794 L0,95.0720794 Z" id="Fill-13" fill="#1C7ED6"></path>
                </g>
            </g>
        </g>
    </g>
</svg>